<svg width="320" height="386" viewBox="0 0 320 386" fill="none" xmlns="http://www.w3.org/2000/svg">
<path d="M98.7796 165.471C98.7796 165.471 9.11152 86.5055 104.599 41.2371C132.391 42.6969 122.8 55.0913 131.328 62.1856C131.328 62.1856 125.927 86.999 122.521 65.5205C119.115 44.042 171.488 -2.10244 186.877 10.2237C202.266 22.5499 277.81 47.2264 227.112 127.393C176.414 207.559 184.25 113.231 211.336 110.462C238.423 107.693 314.735 117.687 312.424 195.314C309.917 279.527 178.526 223.072 188.264 183.552L172.351 182.362L168.497 165.528C167.515 182.815 163.903 192.745 152.925 182.071C159.971 197.791 161.532 207.076 140.548 189.91L139.411 188.855C137.295 194.099 128.53 183.379 146.118 172.06C123.94 182.371 134.491 168.893 137.811 160.67L154.618 164.129L162.029 152.165L166.448 150.745L171.432 160.27C181.594 190.504 189.644 169.214 198.495 167.443C191.648 161.763 199.136 144.583 169.568 157.131C185.809 145.377 186.135 140.714 182.087 137.999C173.62 110.243 158.319 135.447 144.329 150.491C137.55 153.131 129.45 137.17 124.309 162.856C115.505 174.879 107.74 181.143 105.379 157.477C155.583 189.274 172.783 194.093 129.5 149.471C129.5 149.471 50.1899 167.662 72.3799 208.699C94.5698 249.737 139.663 218.45 139.663 218.45C139.663 218.45 123.073 175.332 121 212.797C118.926 250.263 134.28 313.635 193.897 300.674C253.514 287.713 225.837 237.99 225.837 237.99L195.668 205.169" stroke="#C4C4C4" stroke-width="5"/>
<path d="M115 229C92.9998 257.667 62.1998 314.6 115 313C181 311 211 369 163 371C115 373 163 285 115 293C76.6 299.4 61.6667 357 59 385" stroke="#C4C4C4" stroke-width="5"/>
<circle cx="285.5" cy="279.5" r="2.5" stroke="#C4C4C4" stroke-width="4"/>
<circle cx="2.5" cy="154.5" r="2" stroke="#C4C4C4"/>
</svg>
