<?xml version="1.0" encoding="UTF-8" standalone="no"?>
<!-- Created with Inkscape (http://www.inkscape.org/) -->

<svg
   xmlns:dc="http://purl.org/dc/elements/1.1/"
   xmlns:cc="http://creativecommons.org/ns#"
   xmlns:rdf="http://www.w3.org/1999/02/22-rdf-syntax-ns#"
   xmlns:svg="http://www.w3.org/2000/svg"
   xmlns="http://www.w3.org/2000/svg"
   xmlns:sodipodi="http://sodipodi.sourceforge.net/DTD/sodipodi-0.dtd"
   xmlns:inkscape="http://www.inkscape.org/namespaces/inkscape"
   width="793.70081"
   height="1122.5197"
   viewBox="0 0 210 297"
   version="1.1"
   id="svg8"
   inkscape:version="0.92.3 (2405546, 2018-03-11)"
   sodipodi:docname="computer-repair2.svg">
  <defs
     id="defs2" />
  <sodipodi:namedview
     id="base"
     pagecolor="#ffffff"
     bordercolor="#666666"
     borderopacity="1.0"
     inkscape:pageopacity="0.0"
     inkscape:pageshadow="2"
     inkscape:zoom="0.35"
     inkscape:cx="443.8671"
     inkscape:cy="653.70634"
     inkscape:document-units="px"
     inkscape:current-layer="g936"
     showgrid="false"
     units="px"
     inkscape:window-width="1366"
     inkscape:window-height="745"
     inkscape:window-x="-8"
     inkscape:window-y="-8"
     inkscape:window-maximized="1" />
  <metadata
     id="metadata5">
    <rdf:RDF>
      <cc:Work
         rdf:about="">
        <dc:format>image/svg+xml</dc:format>
        <dc:type
           rdf:resource="http://purl.org/dc/dcmitype/StillImage" />
        <dc:title></dc:title>
      </cc:Work>
    </rdf:RDF>
  </metadata>
  <g
     inkscape:label="Layer 1"
     inkscape:groupmode="layer"
     id="layer1">
    <g
       id="g885"
       transform="matrix(0.26458333,0,0,0.26458333,25.248811,73.540478)">
      <g
         id="g936"
         transform="translate(61.428571,-185.71432)">
        <g
           id="g1127"
           transform="translate(2.8571429,-394.28572)">
          <path
             id="path1004"
             d="m 307.42857,926.00001 c -5.51953,0 -10,4.48047 -10,10 0,5.51953 4.48047,10 10,10 5.51953,0 10,-4.48047 10,-10 0,-5.51953 -4.48047,-10 -10,-10 z m 0,0"
             inkscape:connector-curvature="0" />
          <path
             id="path1006"
             d="M 453.42857,580.00001 H 41.428572 c -27.570313,0 -50.0000003,22.42969 -50.0000003,50 v 306 c 0,27.57031 22.4296873,50 50.0000003,50 H 197.42857 V 1032 h -10 c -13.35156,0 -25.90234,5.2032 -35.35156,14.6485 -9.44532,9.4492 -14.64844,22 -14.64844,35.3516 0,5.5234 4.47656,10 10,10 h 200 c 5.52344,0 10,-4.4766 10,-10 0,-27.5704 -22.42969,-50.0001 -50,-50.0001 h -10 v -45.99999 h 156 c 27.57031,0 50,-22.42969 50,-50 v -306 c 0,-27.57031 -22.42969,-50 -50,-50 z m -441.999999,306 v -256 c 0,-16.54297 13.457032,-30 30.000001,-30 H 453.42857 c 16.54297,0 30,13.45703 30,30 v 256 M 335.71373,1072.0001 H 159.1317 c 1.46875,-4.168 3.86718,-7.9883 7.08593,-11.211 5.67188,-5.668 13.20313,-8.789 21.21094,-8.789 h 120 c 13.03906,0 24.16016,8.3593 28.28516,20 z M 277.42857,1032 h -60 v -45.99999 h 60 z m 176,-65.99999 H 41.428572 c -16.542969,0 -30.000001,-13.45703 -30.000001,-30 v -30 H 483.42857 v 30 c 0,16.54297 -13.45703,30 -30,30 z"
             inkscape:connector-curvature="0"
             sodipodi:nodetypes="sssssccscsssssccsssscssssccccssccccccsssccss" />
          <path
             id="path1008"
             d="m 267.42857,926.00001 h -60 c -5.52344,0 -10,4.47656 -10,10 0,5.52344 4.47656,10 10,10 h 60 c 5.52344,0 10,-4.47656 10,-10 0,-5.52344 -4.47656,-10 -10,-10 z m 0,0"
             inkscape:connector-curvature="0" />
          <g
             transform="matrix(0.86408074,0,0,0.86408074,148.3842,655.15847)"
             id="g1105">
            <path
               inkscape:connector-curvature="0"
               d="m 230.505,102.78 c -0.365,-3.25 -4.156,-5.695 -7.434,-5.695 -10.594,0 -19.996,-6.218 -23.939,-15.842 -4.025,-9.855 -1.428,-21.346 6.465,-28.587 2.486,-2.273 2.789,-6.079 0.705,-8.721 -5.424,-6.886 -11.586,-13.107 -18.316,-18.498 -2.633,-2.112 -6.502,-1.818 -8.787,0.711 -6.891,7.632 -19.27,10.468 -28.836,6.477 -9.951,-4.187 -16.232,-14.274 -15.615,-25.101 0.203,-3.403 -2.285,-6.36 -5.676,-6.755 -8.637,-1 -17.35,-1.029 -26.012,-0.068 -3.348,0.37 -5.834,3.257 -5.723,6.617 0.375,10.721 -5.977,20.63 -15.832,24.667 -9.451,3.861 -21.744,1.046 -28.621,-6.519 -2.273,-2.492 -6.074,-2.798 -8.725,-0.731 -6.928,5.437 -13.229,11.662 -18.703,18.492 -2.133,2.655 -1.818,6.503 0.689,8.784 8.049,7.289 10.644,18.879 6.465,28.849 -3.99,9.505 -13.859,15.628 -25.156,15.628 -3.666,-0.118 -6.275,2.345 -6.68,5.679 -1.016,8.683 -1.027,17.535 -0.049,26.289 0.365,3.264 4.268,5.688 7.582,5.688 10.07,-0.256 19.732,5.974 23.791,15.841 4.039,9.855 1.439,21.341 -6.467,28.592 -2.473,2.273 -2.789,6.07 -0.701,8.709 5.369,6.843 11.537,13.068 18.287,18.505 2.65,2.134 6.504,1.835 8.801,-0.697 6.918,-7.65 19.295,-10.481 28.822,-6.482 9.98,4.176 16.258,14.262 15.645,25.092 -0.201,3.403 2.293,6.369 5.672,6.755 4.42,0.517 8.863,0.773 13.32,0.773 4.23,0 8.461,-0.231 12.692,-0.702 3.352,-0.37 5.834,-3.26 5.721,-6.621 -0.387,-10.716 5.979,-20.626 15.822,-24.655 9.514,-3.886 21.752,-1.042 28.633,6.512 2.285,2.487 6.063,2.789 8.725,0.73 6.916,-5.423 13.205,-11.645 18.703,-18.493 2.135,-2.65 1.832,-6.503 -0.689,-8.788 -8.047,-7.284 -10.656,-18.879 -6.477,-28.839 3.928,-9.377 13.43,-15.673 23.65,-15.673 l 1.43,0.038 c 3.318,0.269 6.367,-2.286 6.768,-5.671 1.021,-8.691 1.032,-17.533 0.05,-26.29 z m -114.889,79.49 c -36.813,0 -66.654,-29.841 -66.654,-66.653 0,-36.812 29.842,-66.653 66.654,-66.653 36.812,0 66.654,29.841 66.654,66.653 0,12.495 -3.445,24.182 -9.428,34.176 l -29.186,-29.187 c 2.113,-4.982 3.229,-10.383 3.228,-15.957 0,-10.915 -4.251,-21.176 -11.97,-28.893 -7.717,-7.717 -17.978,-11.967 -28.891,-11.967 -3.642,0 -7.267,0.484 -10.774,1.439 -1.536,0.419 -2.792,1.685 -3.201,3.224 -0.418,1.574 0.053,3.187 1.283,4.418 0,0 14.409,14.52 19.23,19.34 0.505,0.505 0.504,1.71 0.433,2.144 l -0.045,0.317 c -0.486,5.3 -1.423,11.662 -2.196,14.107 -0.104,0.103 -0.202,0.19 -0.308,0.296 -0.111,0.111 -0.213,0.218 -0.32,0.328 -2.477,0.795 -8.937,1.743 -14.321,2.225 l 0.001,-0.029 -0.242,0.061 c -0.043,0.005 -0.123,0.011 -0.229,0.011 -0.582,0 -1.438,-0.163 -2.216,-0.94 C 88.1,105.712 74.256,91.967 74.256,91.967 73.014,90.729 71.74,90.469 70.891,90.469 c -1.979,0 -3.751,1.43 -4.309,3.481 -3.811,14.103 0.229,29.273 10.546,39.591 7.719,7.718 17.981,11.968 28.896,11.968 5.574,0 10.975,-1.115 15.956,-3.228 l 29.503,29.503 c -10.358,6.628 -22.658,10.486 -35.867,10.486 z"
               id="path1050" />
            <g
               id="g1052">
</g>
            <g
               id="g1054">
</g>
            <g
               id="g1056">
</g>
            <g
               id="g1058">
</g>
            <g
               id="g1060">
</g>
            <g
               id="g1062">
</g>
            <g
               id="g1064">
</g>
            <g
               id="g1066">
</g>
            <g
               id="g1068">
</g>
            <g
               id="g1070">
</g>
            <g
               id="g1072">
</g>
            <g
               id="g1074">
</g>
            <g
               id="g1076">
</g>
            <g
               id="g1078">
</g>
            <g
               id="g1080">
</g>
          </g>
        </g>
      </g>
    </g>
  </g>
</svg>
