<svg width="36" height="36" viewBox="0 0 36 36" fill="none" xmlns="http://www.w3.org/2000/svg">
<g clip-path="url(#clip0)">
<path d="M31.6052 4.30176H4.40223C1.97393 4.30176 0 6.27569 0 8.70399V27.2962C0 29.7245 1.97393 31.6984 4.40223 31.6984H31.5978C34.0261 31.6984 36 29.7245 36 27.2962V8.71144C36.0075 6.28314 34.0335 4.30176 31.6052 4.30176ZM33.9963 27.2962C33.9963 28.6146 32.9237 29.6872 31.6052 29.6872H4.40223C3.0838 29.6872 2.01117 28.6146 2.01117 27.2962V8.71144C2.01117 7.39301 3.0838 6.32038 4.40223 6.32038H31.5978C32.9162 6.32038 33.9888 7.39301 33.9888 8.71144V27.2962H33.9963Z" fill="#FF5C45"/>
<path d="M22.7034 17.769L31.5078 9.87328C31.9175 9.50084 31.9548 8.86769 31.5823 8.45056C31.2099 8.04088 30.5767 8.00363 30.1596 8.37607L18.0181 19.2737L15.6494 17.1582C15.6419 17.1507 15.6345 17.1433 15.6345 17.1359C15.5823 17.0837 15.5302 17.039 15.4706 16.9943L5.83187 8.36862C5.41474 7.99618 4.78159 8.03343 4.40915 8.45056C4.03671 8.86769 4.07395 9.50084 4.49109 9.87328L13.3998 17.836L4.52833 26.1414C4.1261 26.5213 4.10375 27.1545 4.48364 27.5642C4.68475 27.7727 4.95291 27.8845 5.22107 27.8845C5.46688 27.8845 5.71269 27.7951 5.90636 27.6163L14.9119 19.1917L17.3551 21.3742C17.5488 21.5455 17.7872 21.6275 18.0255 21.6275C18.2639 21.6275 18.5097 21.5381 18.6959 21.3668L21.2062 19.1172L30.1596 27.6237C30.3533 27.81 30.6065 27.8994 30.8524 27.8994C31.1205 27.8994 31.3812 27.7951 31.5823 27.5865C31.9622 27.1843 31.9473 26.5437 31.5451 26.1638L22.7034 17.769Z" fill="#FF5C45"/>
</g>
<defs>
<clipPath id="clip0">
<rect width="36" height="36" fill="white"/>
</clipPath>
</defs>
</svg>
