<svg width="29" height="42" viewBox="0 0 29 42" fill="none" xmlns="http://www.w3.org/2000/svg">
<g clip-path="url(#clip0)">
<path d="M14.636 9.07422C11.7179 9.07422 9.34277 11.4493 9.34277 14.3674C9.34277 17.2855 11.7179 19.6606 14.636 19.6606C17.5541 19.6606 19.9292 17.2855 19.9292 14.3674C19.9292 11.4493 17.5541 9.07422 14.636 9.07422ZM14.636 18.1483C12.5512 18.1483 10.8551 16.4522 10.8551 14.3674C10.8551 12.2826 12.5512 10.5865 14.636 10.5865C16.7208 10.5865 18.4169 12.2826 18.4169 14.3674C18.4169 16.4522 16.7208 18.1483 14.636 18.1483Z" fill="#FF5C45"/>
<path d="M24.7552 4.24742C22.0163 1.50857 18.3746 0 14.5015 0C10.6276 0 6.98662 1.50857 4.24776 4.24742C-0.820865 9.3153 -1.45076 18.8506 2.88363 24.6278L14.5015 41.4058L26.1019 24.6512C30.4537 18.8506 29.8238 9.3153 24.7552 4.24742ZM24.8754 23.7673L14.5015 38.7486L4.1109 23.7438C0.179552 18.502 0.7429 9.89074 5.31775 5.31665C7.77077 2.86363 11.0321 1.51235 14.5015 1.51235C17.9708 1.51235 21.2322 2.86363 23.6859 5.31665C28.2608 9.89074 28.8241 18.502 24.8754 23.7673Z" fill="#FF5C45"/>
</g>
<defs>
<clipPath id="clip0">
<rect width="29" height="42" fill="white"/>
</clipPath>
</defs>
</svg>
