<svg width="22" height="56" viewBox="0 0 22 56" fill="none" xmlns="http://www.w3.org/2000/svg">
<path d="M3.12 13.464L10.272 12.312V19.752H18.864V25.704H10.272V34.584C10.272 36.088 10.528 37.288 11.04 38.184C11.584 39.08 12.656 39.528 14.256 39.528C15.024 39.528 15.808 39.464 16.608 39.336C17.44 39.176 18.192 38.968 18.864 38.712L19.872 44.28C19.008 44.632 18.048 44.936 16.992 45.192C15.936 45.448 14.64 45.576 13.104 45.576C11.152 45.576 9.536 45.32 8.256 44.808C6.976 44.264 5.952 43.528 5.184 42.6C4.416 41.64 3.872 40.488 3.552 39.144C3.264 37.8 3.12 36.312 3.12 34.68V13.464Z" fill="#EB5757"/>
<circle cx="15.5" cy="32.5" r="3.5" fill="#EB5757"/>
</svg>
